<mxfile host="app.diagrams.net" agent="Mozilla/5.0 (Windows NT 10.0; Win64; x64) AppleWebKit/537.36 (KHTML, like Gecko) Chrome/132.0.0.0 Safari/537.36" version="26.0.11">
  <diagram name="Page-1" id="3e8102d1-ef87-2e61-34e1-82d9a586fe2e">
    <mxGraphModel dx="1096" dy="629" grid="1" gridSize="10" guides="1" tooltips="1" connect="1" arrows="1" fold="1" page="1" pageScale="1" pageWidth="1100" pageHeight="850" background="none" math="0" shadow="0">
      <root>
        <mxCell id="0" />
        <mxCell id="1" parent="0" />
        <mxCell id="kgX0nDSww72TRnQ_sGR9-2" value="" style="ellipse;whiteSpace=wrap;html=1;aspect=fixed;" vertex="1" parent="1">
          <mxGeometry x="240" y="55" width="610" height="610" as="geometry" />
        </mxCell>
        <mxCell id="70666756c84bb93c-1" value="" style="ellipse;whiteSpace=wrap;html=1;rounded=0;shadow=0;comic=0;strokeWidth=1;fontFamily=Verdana;fontSize=14;strokeColor=none;fillColor=#0069D1;opacity=50;" parent="1" vertex="1">
          <mxGeometry x="295" y="110" width="500" height="500" as="geometry" />
        </mxCell>
        <mxCell id="kgX0nDSww72TRnQ_sGR9-16" value="" style="ellipse;whiteSpace=wrap;html=1;aspect=fixed;" vertex="1" parent="1">
          <mxGeometry x="380" y="195" width="330" height="330" as="geometry" />
        </mxCell>
        <mxCell id="kgX0nDSww72TRnQ_sGR9-15" value="" style="endArrow=none;html=1;rounded=0;entryX=0.5;entryY=0;entryDx=0;entryDy=0;opacity=50;fillColor=#e51400;strokeColor=#B20000;exitX=0.5;exitY=1;exitDx=0;exitDy=0;" edge="1" parent="1" source="kgX0nDSww72TRnQ_sGR9-2">
          <mxGeometry width="50" height="50" relative="1" as="geometry">
            <mxPoint x="545" y="665" as="sourcePoint" />
            <mxPoint x="545" y="305" as="targetPoint" />
          </mxGeometry>
        </mxCell>
        <mxCell id="kgX0nDSww72TRnQ_sGR9-6" value="" style="endArrow=none;html=1;rounded=0;entryX=1;entryY=0;entryDx=0;entryDy=0;opacity=20;fillColor=#e51400;strokeColor=#B20000;exitX=0;exitY=1;exitDx=0;exitDy=0;" edge="1" parent="1" source="kgX0nDSww72TRnQ_sGR9-2" target="kgX0nDSww72TRnQ_sGR9-2">
          <mxGeometry width="50" height="50" relative="1" as="geometry">
            <mxPoint x="545" y="360" as="sourcePoint" />
            <mxPoint x="590" y="310" as="targetPoint" />
          </mxGeometry>
        </mxCell>
        <mxCell id="kgX0nDSww72TRnQ_sGR9-12" value="" style="endArrow=none;html=1;rounded=0;entryX=0.5;entryY=0;entryDx=0;entryDy=0;opacity=20;fillColor=#e51400;strokeColor=#B20000;exitX=0.5;exitY=1;exitDx=0;exitDy=0;" edge="1" parent="1" target="kgX0nDSww72TRnQ_sGR9-2">
          <mxGeometry width="50" height="50" relative="1" as="geometry">
            <mxPoint x="545" y="415" as="sourcePoint" />
            <mxPoint x="809" y="204" as="targetPoint" />
          </mxGeometry>
        </mxCell>
        <mxCell id="kgX0nDSww72TRnQ_sGR9-13" value="" style="endArrow=none;html=1;rounded=0;entryX=0;entryY=0;entryDx=0;entryDy=0;opacity=20;fillColor=#e51400;strokeColor=#B20000;exitX=1;exitY=1;exitDx=0;exitDy=0;" edge="1" parent="1" source="kgX0nDSww72TRnQ_sGR9-2" target="kgX0nDSww72TRnQ_sGR9-2">
          <mxGeometry width="50" height="50" relative="1" as="geometry">
            <mxPoint x="540" y="360" as="sourcePoint" />
            <mxPoint x="819" y="214" as="targetPoint" />
          </mxGeometry>
        </mxCell>
        <mxCell id="kgX0nDSww72TRnQ_sGR9-7" value="" style="endArrow=none;html=1;rounded=0;entryX=1;entryY=0.5;entryDx=0;entryDy=0;opacity=20;fillColor=#e51400;strokeColor=#B20000;exitX=0;exitY=0.5;exitDx=0;exitDy=0;" edge="1" parent="1" source="kgX0nDSww72TRnQ_sGR9-2" target="kgX0nDSww72TRnQ_sGR9-2">
          <mxGeometry width="50" height="50" relative="1" as="geometry">
            <mxPoint x="545" y="360" as="sourcePoint" />
            <mxPoint x="759" y="154" as="targetPoint" />
          </mxGeometry>
        </mxCell>
        <mxCell id="kgX0nDSww72TRnQ_sGR9-17" value="AI&lt;div&gt;大模型&lt;/div&gt;" style="ellipse;whiteSpace=wrap;html=1;aspect=fixed;fontSize=20;fillColor=#fad7ac;strokeColor=#b46504;opacity=20;" vertex="1" parent="1">
          <mxGeometry x="505" y="320" width="80" height="80" as="geometry" />
        </mxCell>
        <mxCell id="kgX0nDSww72TRnQ_sGR9-22" value="&lt;span style=&quot;font-family: 宋体; text-align: justify;&quot;&gt;ROS技术&lt;/span&gt;" style="rounded=0;whiteSpace=wrap;html=1;fontSize=20;strokeColor=none;rotation=-60;" vertex="1" parent="1">
          <mxGeometry x="550" y="260" width="80" height="20" as="geometry" />
        </mxCell>
        <mxCell id="kgX0nDSww72TRnQ_sGR9-24" value="&lt;span style=&quot;font-family: 宋体; text-align: justify;&quot;&gt;机器人&lt;/span&gt;&lt;div&gt;&lt;span style=&quot;font-family: 宋体; text-align: justify;&quot;&gt;数学基础&lt;/span&gt;&lt;/div&gt;" style="rounded=0;whiteSpace=wrap;html=1;fontSize=20;strokeColor=none;" vertex="1" parent="1">
          <mxGeometry x="600" y="310" width="90" height="40" as="geometry" />
        </mxCell>
        <mxCell id="kgX0nDSww72TRnQ_sGR9-25" value="&lt;span style=&quot;font-family: 宋体; text-align: justify;&quot;&gt;运动学&lt;/span&gt;&lt;div&gt;&lt;span style=&quot;font-family: 宋体; text-align: justify;&quot;&gt;动力学&lt;/span&gt;&lt;/div&gt;" style="rounded=0;whiteSpace=wrap;html=1;fontSize=20;strokeColor=none;" vertex="1" parent="1">
          <mxGeometry x="610" y="370" width="90" height="40" as="geometry" />
        </mxCell>
        <mxCell id="kgX0nDSww72TRnQ_sGR9-26" value="&lt;span style=&quot;font-family: 宋体; text-align: justify;&quot;&gt;传感器&lt;/span&gt;" style="rounded=0;whiteSpace=wrap;html=1;fontSize=20;strokeColor=none;rotation=60;" vertex="1" parent="1">
          <mxGeometry x="547.5" y="450" width="85" height="20" as="geometry" />
        </mxCell>
        <mxCell id="kgX0nDSww72TRnQ_sGR9-27" value="&lt;span style=&quot;font-family: 宋体; text-align: justify;&quot;&gt;图像处理&lt;/span&gt;" style="rounded=0;whiteSpace=wrap;html=1;fontSize=20;strokeColor=none;rotation=-60;" vertex="1" parent="1">
          <mxGeometry x="460" y="450" width="85" height="20" as="geometry" />
        </mxCell>
        <mxCell id="kgX0nDSww72TRnQ_sGR9-28" value="&lt;span style=&quot;font-family: 宋体; text-align: justify;&quot;&gt;路径规划&lt;/span&gt;" style="rounded=0;whiteSpace=wrap;html=1;fontSize=20;strokeColor=none;" vertex="1" parent="1">
          <mxGeometry x="400" y="330" width="90" height="20" as="geometry" />
        </mxCell>
        <mxCell id="kgX0nDSww72TRnQ_sGR9-30" value="&lt;span style=&quot;font-family: 宋体; text-align: justify;&quot;&gt;控制理论&lt;/span&gt;" style="rounded=0;whiteSpace=wrap;html=1;fontSize=20;strokeColor=none;rotation=60;" vertex="1" parent="1">
          <mxGeometry x="460" y="260" width="85" height="20" as="geometry" />
        </mxCell>
        <mxCell id="kgX0nDSww72TRnQ_sGR9-31" value="&lt;span style=&quot;font-family: 宋体; text-align: justify;&quot;&gt;SLAM&lt;/span&gt;" style="rounded=0;whiteSpace=wrap;html=1;fontSize=20;strokeColor=none;" vertex="1" parent="1">
          <mxGeometry x="405" y="380" width="85" height="20" as="geometry" />
        </mxCell>
      </root>
    </mxGraphModel>
  </diagram>
</mxfile>
